<svg width="24" height="24" version="1.1" viewBox="0 0 24 24" xmlns="http://www.w3.org/2000/svg">
	<path d="m11 23c-2.13-.198-4.25-1.06-5.92-2.39-.429-.344-1.27-1.18-1.62-1.62-1.79-2.21-2.68-5.1-2.43-7.87.2-2.2 1.04-4.29 2.39-5.98.344-.429 1.18-1.27 1.62-1.62 2.21-1.79 5.1-2.68 7.87-2.43 2.2.2 4.29 1.04 5.98 2.39.429.344 1.27 1.18 1.62 1.62 1.39 1.71 2.23 3.81 2.43 6.03.251 2.76-.645 5.66-2.43 7.87-.352.435-1.19 1.27-1.62 1.62-2.21 1.77-5.11 2.65-7.89 2.39zm2.17-1.43c1.01-.12 2.04-.432 3.03-.915 1.07-.527 1.82-1.07 2.65-1.92 1.26-1.29 2.11-2.86 2.5-4.61.166-.748.223-1.27.223-2.08 0-1.54-.302-2.84-.978-4.21-.527-1.07-1.07-1.82-1.92-2.65-1.51-1.47-3.43-2.4-5.55-2.67-.547-.0693-1.74-.0693-2.29 0-2.82.357-5.28 1.88-6.87 4.26-.343.51-.882 1.61-1.08 2.2-.188.569-.366 1.35-.439 1.93-.0693.547-.0693 1.74 0 2.29.404 3.19 2.34 5.96 5.16 7.39 1.75.891 3.6 1.22 5.56.987z" stroke-width=".0448" />
</svg>