<svg width="24" height="24" version="1.1" viewBox="0 0 24 24" xmlns="http://www.w3.org/2000/svg">
	<g transform="matrix(.14 0 0 .14 .776 .776)" stroke-width=".32">
		<path d="m73.1 158-2.88-.268-6.08-1.01-6.09-1.54-7.67-2.62-9.6-4.7-7.68-5.13-4.48-3.59-7.27-7.18-4.15-5.12-5.13-7.68-4.7-9.6-2.62-7.67-1.54-6.09-.969-5.76-.668-7.36v-5.76l.668-7.36.969-5.76 1.54-6.09 2.62-7.67 4.7-9.6 5.13-7.68 3.59-4.48 7.18-7.27 5.12-4.15 7.68-5.13 9.6-4.7 7.67-2.62 6.09-1.54 5.76-.969 7.36-.668h5.76l7.36.668 5.76.969 6.09 1.54 7.67 2.62 9.6 4.7 7.68 5.13 4.48 3.59 7.27 7.18 4.15 5.12 5.13 7.68 4.7 9.6 2.62 7.67 1.54 6.09.969 5.76.668 7.36v5.76l-.668 7.36-.969 5.76-1.54 6.09-2.62 7.67-4.7 9.6-5.13 7.68-4.15 5.12-7.27 7.18-4.48 3.59-7.68 5.13-9.6 4.7-7.67 2.62-6.09 1.54-5.76.969-7.36.668-7.04-.0843zm16.8-9.76 3.36-.477 7.45-1.85 6.31-2.36 5.76-2.69 6.08-3.69 6.06-4.59 6.34-6.07 5.16-6.41 3.74-5.76 3.77-7.68 2.33-6.31 1.85-7.45 1.07-7.04v-12.2l-1.07-7.04-1.85-7.45-2.36-6.31-2.69-5.76-3.69-6.08-4.59-6.06-6.07-6.34-6.41-5.16-5.76-3.74-7.68-3.77-6.31-2.33-7.45-1.85-7.04-1.07h-12.2l-7.04 1.07-7.45 1.85-6.31 2.33-7.68 3.77-5.76 3.74-6.41 5.16-6.07 6.34-4.59 6.06-3.69 6.08-2.69 5.76-2.36 6.31-1.85 7.45-1.07 7.04v12.2l1.07 7.04 1.85 7.45 2.33 6.31 3.77 7.68 3.74 5.76 5.16 6.41 6.34 6.07 6.06 4.59 6.08 3.69 5.76 2.69 6.17 2.3 6.14 1.59 5.94 1.03 6.4.537 8.64-.304z" />
	</g>
</svg>