<svg width="24" height="24" version="1.1" viewBox="0 0 6.35 6.35" xmlns="http://www.w3.org/2000/svg">
	<g transform="translate(0 -291)">
		<g transform="matrix(.0482 0 0 -.0494 3.17 291)">
			<path d="m0 0c-33.3 0-60.4-27-60.4-60.4 0-26.7 17.3-49.3 41.3-57.3 3.02-.559 4.13 1.31 4.13 2.9 0 1.44-.056 6.2-.082 11.2-16.8-3.65-20.3 7.12-20.3 7.12-2.75 6.98-6.7 8.84-6.7 8.84-5.48 3.75.413 3.67.413 3.67 6.06-.426 9.26-6.22 9.26-6.22 5.39-9.23 14.1-6.56 17.6-5.02.543 3.9 2.11 6.57 3.83 8.08-13.4 1.53-27.5 6.7-27.5 29.8 0 6.59 2.36 12 6.22 16.2-.627 1.52-2.69 7.66.586 16 0 0 5.07 1.62 16.6-6.19 4.82 1.34 9.98 2.01 15.1 2.03 5.13-.024 10.3-.695 15.1-2.03 11.5 7.81 16.6 6.19 16.6 6.19 3.29-8.32 1.22-14.5.593-16 3.87-4.23 6.21-9.62 6.21-16.2 0-23.2-14.1-28.3-27.6-29.8 2.17-1.87 4.1-5.55 4.1-11.2 0-8.08-.069-14.6-.069-16.6 0-1.61 1.09-3.49 4.15-2.9 24 7.99 41.3 30.6 41.3 57.3 0 33.4-27 60.4-60.4 60.4" />
		</g>
	</g>
</svg>
