<svg width="24" height="24" version="1.1" viewBox="0 0 24 24" xmlns="http://www.w3.org/2000/svg">
	<path d="m5.7 23-.184-.0269-.921-.202-.954-.358-.743-.465-.727-.694-.549-.906-.309-.844-.274-1.24-.043-12.8h3.01l.0491 11.8.211.949.418.921.652.672.794.386.675.173 1.72-.01 1.04-.285.86-.459.806-.827.384-.698.37-1.14.213-1.2.0445-10.3h2.99v17.2h-2.51l-.0631-.285-.251-1.52-.0578-.174-.437.591-.819.7-1.23.627-1.23.332-2.76.0322zm11.5-13.2v-.625l2.48-2.77.792-.949.484-.759.244-.805v-.605l-.342-.674-.654-.352h-.533l-.587.204-.908.619h-.271l-.633-.749.0052-.295.578-.457.746-.388.744-.2 1.27.001.614.169.528.277.499.514.32.714.0476 1.34-.148.734-.545 1.09-.844 1.08-1.96 2.16 3.86.0334v1.33h-5.78v-.625z" stroke-width=".0623" />
</svg>