<svg width="24" height="24" version="1.1" viewBox="0 0 24 24" xmlns="http://www.w3.org/2000/svg">
	<path d="m1.6 22.9-.231-.0822-.255-.294-.116-.42.175-.766.109-.347.648-2.37.213-.752.231-.81.652-2.37.161-.578.651-2.37.213-.752.231-.81.652-2.37.161-.578.651-2.37.213-.752.232-.81.414-1.5.257-.52.52-.289h15l.401.235.235.401v20.7l-.235.401-.401.235-20.5.0245zm19.6-10.9v-9.2l-13-.0294-.109.145-.134.463-.65 2.37-.213.752-.231.81-.652 2.37-.161.578-.651 2.37-.213.752-.231.81-.652 2.37-.161.578-.651 2.37-.213.752-.249.83.0768.124 18.1-.0292z" stroke-width=".0578" />
</svg>