<svg width="24" height="24" version="1.1" viewBox="0 0 160 160" xmlns="http://www.w3.org/2000/svg">
	<path d="m22.6 141c-.704-.25-1.6-.821-1.99-1.27-.861-.993-1.42-2.89-1.18-3.99.0984-.451 12.9-26.3 28.5-57.5 19-38.1 28.6-56.9 29.1-57.4 1.82-1.43 4.43-1.43 6.24-.0062.52.409 10.6 20.2 29.2 57.4 30.9 61.7 29.2 58.2 27.8 60.7-.344.588-1.12 1.36-1.73 1.72-1.1.648-1.42.652-57.9.719-48.4.0577-57 .00032-58.1-.387zm105-9.7c.221-.358-47.2-95.2-47.6-95.2-.405.0032-47.9 94.8-47.6 95.2.212.344 95.1.35 95.3.007z" stroke-width=".32" />
</svg>