<svg width="24" height="24" version="1.1" viewBox="0 0 24 24" xmlns="http://www.w3.org/2000/svg">
	<path d="m1.58 22.9c-.127-.0452-.289-.148-.359-.229-.156-.18-.257-.522-.213-.722.0178-.0815 2.34-4.76 5.16-10.4 3.44-6.89 5.17-10.3 5.27-10.4.328-.258.802-.259 1.13-.0011.094.0739 1.91 3.65 5.29 10.4 5.59 11.2 5.29 10.5 5.03 11-.0622.106-.203.246-.314.311-.2.117-.256.118-10.5.13-8.76.0104-10.3 5.8e-5-10.5-.07zm19-1.75c.04-.0647-8.55-17.2-8.62-17.2-.0732.000543-8.66 17.1-8.62 17.2.0384.0622 17.2.0634 17.2.0013zm-8.99-3.12c-.461-.254-.535-.841-.155-1.22.19-.19.24-.21.526-.21.286 0 .337.02.524.208.483.483.218 1.24-.459 1.31-.164.0168-.302-.01-.437-.0847zm.254-2.75c-.0485-.13-.664-5.91-.664-6.24-.000398-.595.376-1.02.857-.966.474.0519.706.413.706 1.1 0 .461-.604 6.02-.665 6.12-.0512.0828-.202.0746-.234-.0128z" stroke-width=".0579"/>
</svg>
