<svg width="24" height="24" version="1.1" viewBox="0 0 160 160" xmlns="http://www.w3.org/2000/svg">
	<path d="m22.6 141-1.28-.455-1.41-1.63-.652-2.36.358-1.64 56.6-113 1.62-1.27 2.34-.629 2.31.637 1.58 1.25 56.8 114v2.78l-1.25 2.14-2.22 1.3-114 .136zm105-9.7.16-.26-47.5-94.9-.64.0052-47.5 94.9.329.532h95l.16-.26zm-49.2-5.32-.32-.127-2.41-.404-2.29-2.01-.624-1.64-.00017-1.65-.000169-1.65 1.01-1.94 2.17-1.65 3.91-.69 3.91.69 2.17 1.65.959 1.86v3.58l-.899 1.73-1.5 1.4-1.75.664-4.01.325zm-1.19-21.4-.511-.4-2.01-37.4.194-10.2h9.92l.194 10.2-2.01 37.4-1.02.8h-4.24z" fill="#000" stroke-width=".32" />
</svg>